<svg width="320" height="321" viewBox="0 0 320 321" fill="none" xmlns="http://www.w3.org/2000/svg">
<path d="M49.3118 304.765C48.5084 302.411 47.6762 300.085 46.8154 297.789C45.9546 295.492 45.1225 293.138 44.3191 290.726H19.1833C18.3799 293.138 17.5478 295.521 16.6869 297.875C15.8835 300.172 15.0801 302.468 14.2767 304.765H3C5.23812 298.392 7.36146 292.506 9.37002 287.109C11.3786 281.711 13.3298 276.601 15.2236 271.778C17.1747 266.954 19.0972 262.361 20.991 257.997C22.8848 253.633 24.836 249.326 26.8445 245.077H37.0882C39.0968 249.326 41.048 253.633 42.9418 257.997C44.8356 262.361 46.7293 266.954 48.6231 271.778C50.5743 276.601 52.5542 281.711 54.5628 287.109C56.6287 292.506 58.7807 298.392 61.0189 304.765H49.3118ZM31.7512 256.619C30.4313 259.662 28.9105 263.366 27.1889 267.729C25.5246 272.093 23.7743 276.83 21.9379 281.941H41.5645C39.7281 276.83 37.949 272.065 36.2274 267.643C34.5058 263.222 33.0137 259.547 31.7512 256.619Z" fill="#151C18"/>
<path d="M71.6923 274.878C71.6923 278.151 72.094 281.137 72.8974 283.836C73.7008 286.477 74.8486 288.745 76.3407 290.64C77.8901 292.477 79.7552 293.913 81.936 294.946C84.1167 295.98 86.5844 296.497 89.339 296.497C92.0362 296.497 94.4751 295.98 96.6559 294.946C98.8366 293.913 100.673 292.477 102.165 290.64C103.715 288.745 104.891 286.477 105.694 283.836C106.498 281.137 106.9 278.151 106.9 274.878C106.9 271.605 106.498 268.648 105.694 266.007C104.891 263.308 103.715 261.04 102.165 259.203C100.673 257.308 98.8366 255.844 96.6559 254.81C94.4751 253.776 92.0362 253.26 89.339 253.26C86.5844 253.26 84.1167 253.776 81.936 254.81C79.7552 255.844 77.8901 257.308 76.3407 259.203C74.8486 261.097 73.7008 263.366 72.8974 266.007C72.094 268.648 71.6923 271.605 71.6923 274.878ZM118.262 274.878C118.262 279.989 117.488 284.496 115.938 288.401C114.446 292.305 112.38 295.578 109.74 298.219C107.158 300.803 104.116 302.756 100.616 304.076C97.115 305.397 93.3848 306.057 89.425 306.057C85.4653 306.057 81.7064 305.397 78.1484 304.076C74.6477 302.756 71.5775 300.803 68.9377 298.219C66.3552 295.578 64.2893 292.305 62.7398 288.401C61.1903 284.496 60.4156 279.989 60.4156 274.878C60.4156 269.768 61.1903 265.289 62.7398 261.442C64.2893 257.537 66.3839 254.264 69.0238 251.623C71.721 248.982 74.8199 247.001 78.3205 245.68C81.8212 244.36 85.5227 243.699 89.425 243.699C93.3274 243.699 97.0289 244.36 100.53 245.68C104.03 247.001 107.072 248.982 109.654 251.623C112.294 254.264 114.389 257.537 115.938 261.442C117.488 265.289 118.262 269.768 118.262 274.878Z" fill="#151C18"/>
<path d="M155.211 282.458C155.211 277.807 154.149 274.189 152.026 271.605C149.96 269.021 146.603 267.729 141.954 267.729C140.979 267.729 139.946 267.787 138.855 267.902C137.822 267.959 136.789 268.131 135.756 268.418V294.171C136.675 294.803 137.88 295.406 139.372 295.98C140.921 296.497 142.557 296.755 144.278 296.755C148.066 296.755 150.821 295.463 152.542 292.879C154.321 290.295 155.211 286.822 155.211 282.458ZM165.885 282.285C165.885 285.731 165.426 288.889 164.508 291.76C163.647 294.631 162.384 297.1 160.72 299.167C159.056 301.234 156.961 302.842 154.436 303.99C151.968 305.138 149.156 305.713 146 305.713C143.877 305.713 141.925 305.454 140.146 304.937C138.367 304.421 136.904 303.846 135.756 303.215V320.699H125.34V261.184C127.464 260.609 130.075 260.064 133.174 259.547C136.273 259.03 139.544 258.772 142.987 258.772C146.545 258.772 149.73 259.317 152.542 260.408C155.354 261.499 157.736 263.078 159.687 265.146C161.696 267.155 163.216 269.624 164.249 272.553C165.34 275.424 165.885 278.668 165.885 282.285Z" fill="#151C18"/>
<path d="M169.819 282.458C169.819 278.496 170.393 275.022 171.541 272.036C172.746 269.05 174.324 266.581 176.275 264.629C178.226 262.619 180.464 261.126 182.989 260.15C185.515 259.116 188.097 258.6 190.737 258.6C196.935 258.6 201.755 260.523 205.198 264.37C208.699 268.217 210.449 273.959 210.449 281.596C210.449 282.171 210.421 282.831 210.363 283.577C210.363 284.266 210.335 284.898 210.277 285.472H180.579C180.866 289.09 182.129 291.903 184.367 293.913C186.662 295.865 189.962 296.841 194.266 296.841C196.791 296.841 199.087 296.612 201.153 296.152C203.276 295.693 204.94 295.205 206.145 294.688L207.523 303.215C206.949 303.502 206.145 303.818 205.112 304.162C204.137 304.449 202.989 304.708 201.669 304.937C200.407 305.225 199.029 305.454 197.537 305.627C196.045 305.799 194.524 305.885 192.975 305.885C189.015 305.885 185.572 305.311 182.645 304.162C179.718 302.956 177.308 301.32 175.414 299.253C173.521 297.128 172.114 294.659 171.196 291.846C170.278 288.975 169.819 285.845 169.819 282.458ZM200.034 277.807C200.034 276.371 199.833 275.022 199.431 273.759C199.029 272.438 198.427 271.318 197.623 270.399C196.877 269.423 195.93 268.677 194.783 268.16C193.692 267.586 192.372 267.299 190.823 267.299C189.216 267.299 187.81 267.615 186.605 268.246C185.4 268.82 184.367 269.596 183.506 270.572C182.703 271.548 182.071 272.668 181.612 273.931C181.153 275.194 180.837 276.486 180.665 277.807H200.034Z" fill="#151C18"/>
<path d="M242.841 269.107C241.98 268.82 240.775 268.533 239.225 268.246C237.733 267.902 235.983 267.729 233.975 267.729C232.827 267.729 231.593 267.844 230.273 268.074C229.01 268.304 228.121 268.505 227.604 268.677V304.765H217.189V261.873C219.197 261.126 221.694 260.437 224.678 259.805C227.719 259.116 231.076 258.772 234.749 258.772C235.438 258.772 236.241 258.829 237.16 258.944C238.078 259.002 238.996 259.116 239.914 259.289C240.832 259.404 241.722 259.576 242.583 259.805C243.443 259.978 244.132 260.15 244.649 260.322L242.841 269.107Z" fill="#151C18"/>
<path d="M263.442 297.444C266.656 297.444 269.095 297.272 270.759 296.927V285.386C270.185 285.214 269.353 285.042 268.262 284.869C267.172 284.697 265.967 284.611 264.647 284.611C263.499 284.611 262.323 284.697 261.118 284.869C259.97 285.042 258.908 285.357 257.933 285.817C257.015 286.276 256.268 286.936 255.695 287.798C255.121 288.602 254.834 289.635 254.834 290.898C254.834 293.367 255.609 295.09 257.158 296.066C258.707 296.985 260.802 297.444 263.442 297.444ZM262.581 258.6C266.024 258.6 268.922 259.03 271.275 259.892C273.628 260.753 275.493 261.959 276.871 263.509C278.305 265.059 279.31 266.954 279.883 269.194C280.515 271.376 280.83 273.787 280.83 276.429V303.732C279.223 304.076 276.785 304.478 273.513 304.937C270.3 305.454 266.656 305.713 262.581 305.713C259.884 305.713 257.416 305.454 255.178 304.937C252.94 304.421 251.017 303.588 249.411 302.44C247.861 301.291 246.627 299.798 245.709 297.961C244.848 296.124 244.418 293.855 244.418 291.157C244.418 288.573 244.906 286.391 245.881 284.611C246.914 282.831 248.292 281.395 250.013 280.304C251.735 279.156 253.715 278.352 255.953 277.893C258.248 277.376 260.63 277.118 263.098 277.118C264.245 277.118 265.45 277.204 266.713 277.376C267.976 277.491 269.324 277.72 270.759 278.065V276.342C270.759 275.137 270.615 273.988 270.328 272.897C270.042 271.806 269.525 270.859 268.779 270.055C268.09 269.194 267.143 268.533 265.938 268.074C264.791 267.615 263.327 267.385 261.548 267.385C259.138 267.385 256.928 267.557 254.92 267.902C252.911 268.246 251.276 268.648 250.013 269.107L248.722 260.667C250.042 260.207 251.964 259.748 254.489 259.289C257.015 258.829 259.712 258.6 262.581 258.6Z" fill="#151C18"/>
<path d="M288.765 247.833L299.181 246.111V259.719H315.192V268.418H299.181V286.764C299.181 290.382 299.755 292.965 300.903 294.516C302.051 296.066 304.002 296.841 306.756 296.841C308.65 296.841 310.314 296.64 311.749 296.238C313.241 295.836 314.418 295.463 315.278 295.119L317 303.387C315.795 303.904 314.217 304.421 312.266 304.937C310.314 305.512 308.019 305.799 305.379 305.799C302.165 305.799 299.468 305.368 297.287 304.507C295.164 303.646 293.471 302.411 292.209 300.803C290.946 299.138 290.057 297.157 289.54 294.86C289.024 292.506 288.765 289.836 288.765 286.85V247.833Z" fill="#151C18"/>
<path d="M240.102 34.3044L311.07 114.945C315.436 119.906 311.914 127.697 305.305 127.697H297.336C296.275 127.697 295.414 128.559 295.414 129.619V216.969C295.414 220.684 292.402 223.695 288.687 223.695L286.767 223.696C282.525 223.696 279.086 220.258 279.086 216.016V125.815C279.086 123.247 278.15 120.767 276.453 118.839L250.531 89.3809L224.602 59.9229C223.455 58.6197 221.428 58.6197 220.281 59.9229L185.164 99.8173L178.812 107.039L168.43 118.839C166.733 120.767 165.797 123.247 165.797 125.815V216.016C165.797 220.258 162.359 223.699 158.117 223.699L34.2657 223.695C30.0237 223.695 26.586 220.258 26.586 216.016V129.619C26.586 128.559 25.7246 127.697 24.6641 127.697H16.6954C10.0862 127.697 6.56355 119.906 10.9297 114.945L81.8985 34.3044C83.3566 32.6476 85.4568 31.6992 87.6641 31.6992H234.336C236.543 31.6992 238.643 32.6476 240.102 34.3044Z" fill="#4C9C62"/>
<path d="M156.676 127.784L24.6641 127.697C25.7245 127.697 26.586 128.559 26.586 129.619V137.683L156.676 163.784V127.784Z" fill="#151C18" fill-opacity="0.25"/>
<path fill-rule="evenodd" clip-rule="evenodd" d="M288.689 125.806C288.689 120.903 286.902 116.168 283.663 112.487L272.45 99.7443C280.237 89.3322 284.849 76.407 284.849 62.4047C284.849 27.9395 256.909 -1.50652e-06 222.444 0C187.979 1.50652e-06 160.04 27.9396 160.04 62.4047C160.04 76.407 164.651 89.3322 172.439 99.7443L161.225 112.487C157.986 116.168 156.199 120.903 156.199 125.806V223.697H157.8C162.218 223.697 165.8 220.116 165.8 215.697V125.806C165.8 123.238 166.736 120.757 168.433 118.829L178.819 107.027L185.171 99.8079L220.282 59.9094C221.429 58.6061 223.46 58.6061 224.606 59.9094L250.531 89.3693L259.717 99.8079C252.865 106.637 244.147 111.594 234.395 113.851C232.161 109.525 227.648 106.568 222.444 106.568C217.24 106.568 212.727 109.525 210.494 113.851C209.541 115.696 209.003 117.79 209.003 120.009C209.003 121.2 209.158 122.355 209.449 123.454C210.97 129.208 216.212 133.45 222.444 133.45C228.677 133.45 233.918 129.208 235.44 123.454C247.219 120.959 257.772 115.141 266.07 107.027L276.456 118.829C278.153 120.757 279.088 123.238 279.088 125.806V215.697C279.088 220.116 282.67 223.697 287.088 223.697H288.689V125.806ZM213.075 53.5669C218.044 47.9193 226.844 47.9193 231.814 53.5669L265.942 92.3494C271.812 83.84 275.248 73.5237 275.248 62.4047C275.248 33.2419 251.607 9.60072 222.444 9.60073C193.281 9.60073 169.64 33.2419 169.64 62.4047C169.64 73.5237 173.077 83.84 178.946 92.3494L213.075 53.5669Z" fill="#151C18"/>
</svg>
